<?xml version="1.0" encoding="UTF-8"?>
<!DOCTYPE svg PUBLIC "-//W3C//DTD SVG 1.1//EN" "http://www.w3.org/Graphics/SVG/1.1/DTD/svg11.dtd">
<svg xmlns="http://www.w3.org/2000/svg" version="1.1" width="512px" height="512px" style="shape-rendering:geometricPrecision; text-rendering:geometricPrecision; image-rendering:optimizeQuality; fill-rule:evenodd; clip-rule:evenodd" xmlns:xlink="http://www.w3.org/1999/xlink">
<g><path style="opacity:0.989" fill="#000000" d="M 235.5,-0.5 C 248.833,-0.5 262.167,-0.5 275.5,-0.5C 363.338,12.5055 422.172,60.8388 452,144.5C 473.616,228.293 453.116,299.793 390.5,359C 327.09,410.544 256.756,422.544 179.5,395C 118.308,368.81 77.8077,323.977 58,260.5C 37.7505,175.595 59.9172,104.095 124.5,46C 157.105,20.0315 194.105,4.53146 235.5,-0.5 Z M 244.5,102.5 C 288.667,100.33 322.167,117.996 345,155.5C 364.817,196.956 360.484,235.623 332,271.5C 298.959,305.467 260.125,314.301 215.5,298C 176.702,279.006 156.036,247.839 153.5,204.5C 156.462,156.392 180.462,123.892 225.5,107C 231.95,105.415 238.283,103.915 244.5,102.5 Z"/></g>
<g><path style="opacity:0.974" fill="#000000" d="M 247.5,152.5 C 277.804,151.047 297.304,164.714 306,193.5C 309.728,225.424 296.228,245.924 265.5,255C 234.458,258.265 214.292,245.098 205,215.5C 202.843,207.765 203.009,200.098 205.5,192.5C 206.167,192.167 206.833,191.833 207.5,191.5C 224.319,197.011 236.485,191.678 244,175.5C 246.186,168.813 245.686,162.313 242.5,156C 243.921,154.377 245.588,153.21 247.5,152.5 Z"/></g>
<g><path style="opacity:0.987" fill="#000000" d="M 427.5,511.5 C 312.833,511.5 198.167,511.5 83.5,511.5C 77.5499,507.837 75.3833,502.504 77,495.5C 91.9301,470.63 107.097,445.964 122.5,421.5C 176.086,454.251 234.086,466.084 296.5,457C 331.312,451.787 363.645,439.953 393.5,421.5C 408.236,444.629 422.736,467.963 437,491.5C 437.854,500.124 434.687,506.791 427.5,511.5 Z"/></g>
</svg>
