<svg id="svg" version="1.1" xmlns="http://www.w3.org/2000/svg" xmlns:xlink="http://www.w3.org/1999/xlink" width="400" height="409.9290780141844" viewBox="0, 0, 400,409.9290780141844"><g id="svgg"><path id="path0" d="M198.738 51.927 C 194.771 54.214,188.171 58.049,187.600 58.400 C 185.978 59.394,180.152 62.726,178.200 63.776 C 177.540 64.131,176.640 64.644,176.200 64.916 C 175.760 65.188,174.230 66.091,172.800 66.922 C 171.370 67.753,169.930 68.595,169.600 68.793 C 169.270 68.992,165.040 71.420,160.200 74.188 C 155.360 76.957,151.130 79.386,150.800 79.586 C 148.909 80.730,144.111 83.507,143.600 83.751 C 143.270 83.909,142.344 84.435,141.541 84.919 C 140.739 85.404,138.520 86.700,136.611 87.800 C 134.701 88.900,132.478 90.201,131.670 90.692 C 130.861 91.183,129.930 91.708,129.600 91.859 C 129.270 92.010,124.140 94.952,118.200 98.397 C 112.260 101.842,107.130 104.790,106.800 104.949 C 106.470 105.108,105.543 105.635,104.739 106.119 C 99.956 109.003,97.555 110.360,96.826 110.592 C 96.372 110.736,96.000 111.004,96.000 111.188 C 96.000 111.371,95.505 111.727,94.900 111.978 C 94.295 112.229,93.256 112.741,92.591 113.117 C 91.279 113.858,86.571 116.606,85.600 117.198 C 84.105 118.109,70.535 125.899,70.000 126.153 C 69.670 126.310,68.745 126.835,67.944 127.319 C 67.143 127.804,65.480 128.797,64.248 129.527 C 63.015 130.257,61.735 131.242,61.404 131.716 C 60.484 133.029,60.486 292.974,61.405 294.286 C 61.941 295.052,65.342 297.600,65.827 297.600 C 65.978 297.600,89.489 311.099,91.600 312.398 C 91.930 312.601,93.370 313.447,94.800 314.278 C 96.230 315.109,97.760 316.006,98.200 316.271 C 98.640 316.535,99.540 317.039,100.200 317.390 C 100.860 317.741,102.061 318.427,102.868 318.914 C 103.676 319.401,105.296 320.316,106.468 320.947 C 107.641 321.577,108.827 322.276,109.105 322.500 C 109.382 322.723,110.147 323.197,110.804 323.553 C 115.091 325.876,116.390 326.623,117.920 327.648 C 118.866 328.282,119.736 328.800,119.854 328.800 C 120.024 328.800,135.578 337.714,138.000 339.200 C 139.614 340.189,145.446 343.525,147.400 344.576 C 148.060 344.931,148.960 345.444,149.400 345.716 C 149.840 345.988,151.433 346.928,152.939 347.805 C 154.446 348.682,156.336 349.796,157.139 350.281 C 157.943 350.765,158.873 351.305,159.206 351.481 C 160.161 351.984,165.735 355.185,166.400 355.611 C 166.730 355.823,172.490 359.148,179.200 363.000 C 185.910 366.852,191.670 370.186,192.000 370.410 C 192.330 370.633,193.140 371.088,193.800 371.420 C 194.460 371.752,195.557 372.359,196.238 372.769 C 202.219 376.370,201.635 376.424,210.250 371.475 C 214.199 369.207,217.693 367.218,218.015 367.056 C 218.337 366.894,219.257 366.365,220.061 365.881 C 222.879 364.181,227.010 361.799,228.000 361.302 C 228.550 361.026,229.540 360.442,230.200 360.005 C 230.860 359.567,231.670 359.086,232.000 358.936 C 232.493 358.712,236.764 356.252,239.200 354.789 C 241.726 353.271,262.607 341.255,264.141 340.436 C 266.716 339.062,267.410 338.653,268.057 338.131 C 268.356 337.890,269.559 337.177,270.732 336.547 C 271.904 335.916,273.524 335.008,274.332 334.528 C 275.139 334.048,276.430 333.318,277.200 332.905 C 278.525 332.193,310.728 313.594,312.000 312.805 C 313.423 311.922,317.883 309.362,318.800 308.902 C 319.350 308.626,320.340 308.040,321.000 307.599 C 321.660 307.159,322.740 306.521,323.400 306.182 C 325.902 304.898,329.215 302.945,329.678 302.482 C 329.943 302.217,330.307 302.000,330.486 302.000 C 331.096 302.000,341.963 295.504,342.683 294.709 C 343.367 293.952,343.400 290.248,343.400 213.166 L 343.400 132.415 342.200 131.239 C 341.242 130.301,331.406 124.288,328.800 123.047 C 328.470 122.890,327.539 122.365,326.732 121.881 C 325.924 121.396,324.304 120.482,323.132 119.849 C 321.959 119.216,320.100 118.134,319.000 117.443 C 317.900 116.753,316.640 115.999,316.200 115.767 C 315.516 115.406,309.417 111.880,307.600 110.795 C 307.270 110.598,303.670 108.530,299.600 106.200 C 295.530 103.870,291.930 101.791,291.600 101.579 C 291.270 101.367,290.550 100.981,290.000 100.720 C 289.450 100.459,288.730 100.030,288.400 99.767 C 288.070 99.505,286.900 98.807,285.800 98.217 C 284.700 97.627,283.260 96.802,282.600 96.385 C 281.940 95.967,280.765 95.295,279.989 94.892 C 279.212 94.488,276.905 93.178,274.860 91.979 C 272.816 90.781,270.481 89.429,269.672 88.976 C 267.030 87.497,247.816 76.394,247.200 75.991 C 246.870 75.775,246.154 75.407,245.608 75.174 C 245.063 74.941,244.523 74.612,244.408 74.444 C 244.294 74.275,243.660 73.866,243.000 73.533 C 240.974 72.514,237.833 70.722,237.200 70.225 C 236.870 69.967,236.150 69.541,235.600 69.280 C 235.050 69.019,234.330 68.629,234.000 68.414 C 232.978 67.746,211.106 55.142,209.200 54.122 C 208.210 53.592,206.590 52.642,205.600 52.011 C 203.255 50.515,201.230 50.490,198.738 51.927 M208.265 61.806 C 211.529 63.679,214.470 65.390,214.800 65.609 C 215.130 65.827,215.850 66.219,216.400 66.480 C 216.950 66.741,217.670 67.165,218.000 67.423 C 218.330 67.680,220.040 68.661,221.800 69.602 C 223.560 70.542,225.244 71.505,225.543 71.740 C 226.176 72.240,227.390 72.967,228.800 73.691 C 229.721 74.163,234.197 76.738,235.600 77.602 C 238.650 79.480,253.650 88.000,253.907 88.000 C 254.090 88.000,254.457 88.217,254.722 88.482 C 255.185 88.945,258.498 90.898,261.000 92.182 C 261.660 92.521,262.740 93.159,263.400 93.599 C 264.060 94.040,265.050 94.626,265.600 94.902 C 266.497 95.352,270.863 97.856,272.400 98.802 C 273.954 99.758,297.873 113.496,298.400 113.735 C 298.730 113.884,299.540 114.340,300.200 114.747 C 300.860 115.154,302.030 115.845,302.800 116.282 C 304.763 117.397,308.598 119.636,310.336 120.681 C 311.141 121.165,312.073 121.705,312.406 121.881 C 313.336 122.371,318.923 125.577,319.600 126.009 C 321.229 127.049,334.684 134.694,335.243 134.897 C 335.597 135.026,336.002 135.709,336.143 136.416 C 336.506 138.228,336.453 289.698,336.089 290.269 C 335.925 290.527,330.933 293.548,324.995 296.983 C 319.058 300.417,313.930 303.389,313.600 303.589 C 309.602 306.000,304.654 308.800,304.391 308.800 C 304.207 308.800,303.818 309.039,303.525 309.332 C 303.233 309.624,302.525 310.119,301.952 310.432 C 299.306 311.875,296.058 313.713,294.600 314.595 C 293.720 315.127,292.730 315.694,292.400 315.856 C 291.872 316.114,278.360 323.851,276.800 324.788 C 274.937 325.907,261.600 333.671,260.595 334.221 C 259.938 334.581,258.745 335.263,257.943 335.738 C 255.571 337.142,251.902 339.247,250.400 340.064 C 249.630 340.483,248.460 341.178,247.800 341.608 C 247.140 342.039,246.330 342.513,246.000 342.662 C 245.512 342.883,224.894 354.726,222.800 355.989 C 218.663 358.483,213.870 361.187,213.220 361.394 C 212.769 361.537,212.400 361.810,212.400 362.000 C 212.400 362.190,211.995 362.470,211.500 362.620 C 211.005 362.771,210.330 363.123,210.000 363.403 C 209.670 363.682,208.500 364.393,207.400 364.984 C 206.300 365.574,204.639 366.477,203.708 366.991 L 202.016 367.925 189.108 360.436 C 182.009 356.317,175.930 352.815,175.600 352.654 C 175.270 352.493,174.339 351.965,173.532 351.481 C 172.724 350.996,171.104 350.082,169.932 349.449 C 168.759 348.816,166.900 347.734,165.800 347.043 C 164.700 346.353,163.440 345.599,163.000 345.367 C 162.258 344.976,155.754 341.211,154.400 340.389 C 152.942 339.503,129.739 326.124,129.200 325.858 C 128.870 325.695,127.880 325.127,127.000 324.595 C 126.120 324.063,124.410 323.075,123.200 322.400 C 121.990 321.725,120.280 320.737,119.400 320.205 C 118.520 319.673,117.530 319.104,117.200 318.939 C 116.384 318.533,85.154 300.493,84.400 299.992 C 84.070 299.773,83.350 299.381,82.800 299.120 C 82.250 298.859,81.530 298.430,81.200 298.167 C 80.870 297.905,79.700 297.207,78.600 296.617 C 77.500 296.027,76.060 295.196,75.400 294.771 C 74.740 294.346,73.660 293.716,73.000 293.372 C 72.340 293.027,71.260 292.463,70.600 292.119 C 67.724 290.620,68.000 298.997,68.000 213.214 C 68.000 152.159,68.104 136.026,68.500 135.540 C 68.973 134.960,71.282 133.538,74.400 131.907 C 75.170 131.504,76.340 130.820,77.000 130.387 C 77.660 129.954,78.650 129.374,79.200 129.098 C 80.102 128.645,84.495 126.126,86.000 125.198 C 87.149 124.489,101.004 116.547,101.600 116.256 C 101.930 116.094,102.857 115.565,103.661 115.081 C 106.312 113.482,110.583 111.013,111.600 110.491 C 113.010 109.767,114.224 109.040,114.857 108.540 C 115.156 108.305,116.840 107.342,118.600 106.402 C 120.360 105.461,122.084 104.446,122.431 104.146 C 122.779 103.846,123.186 103.600,123.337 103.600 C 123.488 103.600,129.032 100.450,135.657 96.600 C 142.282 92.750,147.795 89.600,147.910 89.600 C 148.024 89.600,149.036 88.993,150.159 88.251 C 151.281 87.509,153.159 86.384,154.332 85.751 C 155.504 85.118,157.124 84.201,157.932 83.714 C 158.739 83.227,159.940 82.549,160.600 82.208 C 161.260 81.867,162.070 81.414,162.400 81.201 C 163.768 80.317,185.206 68.000,185.375 68.000 C 185.477 68.000,186.334 67.482,187.280 66.848 C 188.226 66.215,189.949 65.180,191.109 64.548 C 192.270 63.917,193.890 62.996,194.709 62.503 C 195.529 62.009,196.740 61.329,197.400 60.992 C 198.060 60.654,199.320 59.941,200.200 59.406 C 202.270 58.149,201.489 57.917,208.265 61.806 M170.395 135.006 C 169.846 135.668,170.002 137.557,170.972 142.000 C 172.548 149.217,172.688 153.650,171.356 154.161 C 170.443 154.512,164.571 154.390,161.800 153.962 C 154.111 152.776,153.305 153.116,158.144 155.504 C 161.344 157.083,161.919 157.225,169.710 158.377 C 172.508 158.790,172.522 158.827,171.977 164.247 C 171.686 167.143,171.380 181.423,171.195 200.800 C 170.894 232.300,170.511 242.622,169.399 249.200 C 169.083 251.070,168.715 253.860,168.580 255.400 C 168.276 258.887,167.303 262.962,166.336 264.794 C 165.931 265.561,165.600 266.398,165.600 266.654 C 165.600 267.342,161.350 271.104,159.447 272.100 C 150.461 276.806,146.314 276.220,140.977 269.489 C 134.371 261.159,133.801 251.891,139.713 248.922 C 143.953 246.792,144.788 246.600,149.820 246.600 C 157.844 246.600,159.386 247.683,158.936 253.002 C 158.575 257.277,160.518 258.334,162.238 254.798 C 164.842 249.443,165.070 247.220,163.281 244.600 C 158.878 238.151,140.905 238.610,133.665 245.356 C 125.390 253.067,129.053 269.041,141.293 278.618 C 148.833 284.517,166.092 278.754,170.691 268.800 C 172.177 265.583,173.200 262.361,173.210 260.864 C 173.215 260.059,173.394 258.680,173.608 257.800 C 173.968 256.317,174.731 250.074,175.612 241.400 C 175.814 239.420,175.994 222.680,176.013 204.200 C 176.049 168.471,176.285 159.777,177.236 159.161 C 177.822 158.781,181.661 158.998,185.800 159.644 C 190.293 160.346,214.135 160.870,220.400 160.405 C 225.708 160.011,227.482 159.739,233.400 158.413 C 234.500 158.166,236.480 157.736,237.800 157.457 C 239.120 157.179,240.593 156.737,241.074 156.475 C 241.554 156.214,242.232 156.000,242.580 156.000 C 243.231 156.000,249.352 153.150,252.206 151.518 C 254.474 150.221,258.795 146.042,259.449 144.513 C 261.160 140.513,258.778 136.869,256.482 139.974 C 255.433 141.393,247.675 146.534,243.819 148.366 C 240.944 149.732,238.452 150.554,235.000 151.278 C 233.900 151.508,232.100 151.935,231.000 152.226 C 223.593 154.189,219.132 154.496,198.382 154.474 C 173.949 154.447,176.014 154.929,175.991 149.250 C 175.985 148.013,175.647 145.740,175.239 144.200 C 174.830 142.660,174.368 140.230,174.210 138.800 C 173.780 134.890,171.979 133.098,170.395 135.006 M254.279 151.825 C 254.157 152.251,253.937 153.770,253.789 155.200 C 253.641 156.630,253.282 158.880,252.991 160.200 C 251.866 165.304,252.025 207.608,253.209 218.200 C 253.760 223.132,253.759 244.504,253.208 246.964 C 252.968 248.035,252.612 251.015,252.417 253.587 C 251.683 263.257,247.771 268.133,236.527 273.393 C 235.827 273.720,235.142 274.171,235.004 274.394 C 234.402 275.368,231.352 274.828,229.510 273.422 C 225.163 270.103,224.861 266.781,228.142 258.412 C 229.273 255.527,231.969 252.880,235.033 251.647 C 236.335 251.123,238.682 250.088,240.249 249.347 C 241.816 248.606,243.278 248.000,243.498 248.000 C 244.735 248.000,249.600 240.996,249.600 239.216 C 249.600 236.602,247.613 236.222,244.696 238.277 C 240.605 241.158,239.944 241.556,238.480 242.015 C 237.666 242.271,236.190 242.838,235.200 243.276 C 232.510 244.466,231.943 244.707,230.262 245.378 C 228.259 246.177,223.236 251.069,222.154 253.275 C 215.984 265.860,217.172 274.455,225.880 280.236 C 228.933 282.262,231.903 282.999,234.502 282.375 C 240.074 281.039,253.377 271.592,256.490 266.762 C 260.739 260.168,261.749 237.590,259.002 210.600 C 258.689 207.520,258.325 202.750,258.193 200.000 C 258.062 197.250,257.789 193.808,257.586 192.352 C 256.897 187.397,256.243 175.424,256.192 166.800 C 256.122 155.228,255.253 148.425,254.279 151.825 " stroke="none" fill="#0a0a0a" fill-rule="evenodd"></path><path id="path1" d="M0.000 204.800 L 0.000 409.600 200.000 409.600 L 400.000 409.600 400.000 204.800 L 400.000 0.000 200.000 0.000 L 0.000 0.000 0.000 204.800 M205.600 52.011 C 206.590 52.642,208.210 53.592,209.200 54.122 C 211.106 55.142,232.978 67.746,234.000 68.414 C 234.330 68.629,235.050 69.019,235.600 69.280 C 236.150 69.541,236.870 69.967,237.200 70.225 C 237.833 70.722,240.974 72.514,243.000 73.533 C 243.660 73.866,244.294 74.275,244.408 74.444 C 244.523 74.612,245.063 74.941,245.608 75.174 C 246.154 75.407,246.870 75.775,247.200 75.991 C 247.816 76.394,267.030 87.497,269.672 88.976 C 270.481 89.429,272.816 90.781,274.860 91.979 C 276.905 93.178,279.212 94.488,279.989 94.892 C 280.765 95.295,281.940 95.967,282.600 96.385 C 283.260 96.802,284.700 97.627,285.800 98.217 C 286.900 98.807,288.070 99.505,288.400 99.767 C 288.730 100.030,289.450 100.459,290.000 100.720 C 290.550 100.981,291.270 101.367,291.600 101.579 C 291.930 101.791,295.530 103.870,299.600 106.200 C 303.670 108.530,307.270 110.598,307.600 110.795 C 309.417 111.880,315.516 115.406,316.200 115.767 C 316.640 115.999,317.900 116.753,319.000 117.443 C 320.100 118.134,321.959 119.216,323.132 119.849 C 324.304 120.482,325.924 121.396,326.732 121.881 C 327.539 122.365,328.470 122.890,328.800 123.047 C 331.406 124.288,341.242 130.301,342.200 131.239 L 343.400 132.415 343.400 213.166 C 343.400 290.248,343.367 293.952,342.683 294.709 C 341.963 295.504,331.096 302.000,330.486 302.000 C 330.307 302.000,329.943 302.217,329.678 302.482 C 329.215 302.945,325.902 304.898,323.400 306.182 C 322.740 306.521,321.660 307.159,321.000 307.599 C 320.340 308.040,319.350 308.626,318.800 308.902 C 317.883 309.362,313.423 311.922,312.000 312.805 C 310.728 313.594,278.525 332.193,277.200 332.905 C 276.430 333.318,275.139 334.048,274.332 334.528 C 273.524 335.008,271.904 335.916,270.732 336.547 C 269.559 337.177,268.356 337.890,268.057 338.131 C 267.410 338.653,266.716 339.062,264.141 340.436 C 262.607 341.255,241.726 353.271,239.200 354.789 C 236.764 356.252,232.493 358.712,232.000 358.936 C 231.670 359.086,230.860 359.567,230.200 360.005 C 229.540 360.442,228.550 361.026,228.000 361.302 C 227.010 361.799,222.879 364.181,220.061 365.881 C 219.257 366.365,218.337 366.894,218.015 367.056 C 217.693 367.218,214.199 369.207,210.250 371.475 C 201.635 376.424,202.219 376.370,196.238 372.769 C 195.557 372.359,194.460 371.752,193.800 371.420 C 193.140 371.088,192.330 370.633,192.000 370.410 C 191.670 370.186,185.910 366.852,179.200 363.000 C 172.490 359.148,166.730 355.823,166.400 355.611 C 165.735 355.185,160.161 351.984,159.206 351.481 C 158.873 351.305,157.943 350.765,157.139 350.281 C 156.336 349.796,154.446 348.682,152.939 347.805 C 151.433 346.928,149.840 345.988,149.400 345.716 C 148.960 345.444,148.060 344.931,147.400 344.576 C 145.446 343.525,139.614 340.189,138.000 339.200 C 135.578 337.714,120.024 328.800,119.854 328.800 C 119.736 328.800,118.866 328.282,117.920 327.648 C 116.390 326.623,115.091 325.876,110.804 323.553 C 110.147 323.197,109.382 322.723,109.105 322.500 C 108.827 322.276,107.641 321.577,106.468 320.947 C 105.296 320.316,103.676 319.401,102.868 318.914 C 102.061 318.427,100.860 317.741,100.200 317.390 C 99.540 317.039,98.640 316.535,98.200 316.271 C 97.760 316.006,96.230 315.109,94.800 314.278 C 93.370 313.447,91.930 312.601,91.600 312.398 C 89.489 311.099,65.978 297.600,65.827 297.600 C 65.342 297.600,61.941 295.052,61.405 294.286 C 60.486 292.974,60.484 133.029,61.404 131.716 C 61.735 131.242,63.015 130.257,64.248 129.527 C 65.480 128.797,67.143 127.804,67.944 127.319 C 68.745 126.835,69.670 126.310,70.000 126.153 C 70.535 125.899,84.105 118.109,85.600 117.198 C 86.571 116.606,91.279 113.858,92.591 113.117 C 93.256 112.741,94.295 112.229,94.900 111.978 C 95.505 111.727,96.000 111.371,96.000 111.188 C 96.000 111.004,96.372 110.736,96.826 110.592 C 97.555 110.360,99.956 109.003,104.739 106.119 C 105.543 105.635,106.470 105.108,106.800 104.949 C 107.130 104.790,112.260 101.842,118.200 98.397 C 124.140 94.952,129.270 92.010,129.600 91.859 C 129.930 91.708,130.861 91.183,131.670 90.692 C 132.478 90.201,134.701 88.900,136.611 87.800 C 138.520 86.700,140.739 85.404,141.541 84.919 C 142.344 84.435,143.270 83.909,143.600 83.751 C 144.111 83.507,148.909 80.730,150.800 79.586 C 151.130 79.386,155.360 76.957,160.200 74.188 C 165.040 71.420,169.270 68.992,169.600 68.793 C 169.930 68.595,171.370 67.753,172.800 66.922 C 174.230 66.091,175.760 65.188,176.200 64.916 C 176.640 64.644,177.540 64.131,178.200 63.776 C 180.152 62.726,185.978 59.394,187.600 58.400 C 188.171 58.049,194.771 54.214,198.738 51.927 C 201.230 50.490,203.255 50.515,205.600 52.011 M200.200 59.406 C 199.320 59.941,198.060 60.654,197.400 60.992 C 196.740 61.329,195.529 62.009,194.709 62.503 C 193.890 62.996,192.270 63.917,191.109 64.548 C 189.949 65.180,188.226 66.215,187.280 66.848 C 186.334 67.482,185.477 68.000,185.375 68.000 C 185.206 68.000,163.768 80.317,162.400 81.201 C 162.070 81.414,161.260 81.867,160.600 82.208 C 159.940 82.549,158.739 83.227,157.932 83.714 C 157.124 84.201,155.504 85.118,154.332 85.751 C 153.159 86.384,151.281 87.509,150.159 88.251 C 149.036 88.993,148.024 89.600,147.910 89.600 C 147.795 89.600,142.282 92.750,135.657 96.600 C 129.032 100.450,123.488 103.600,123.337 103.600 C 123.186 103.600,122.779 103.846,122.431 104.146 C 122.084 104.446,120.360 105.461,118.600 106.402 C 116.840 107.342,115.156 108.305,114.857 108.540 C 114.224 109.040,113.010 109.767,111.600 110.491 C 110.583 111.013,106.312 113.482,103.661 115.081 C 102.857 115.565,101.930 116.094,101.600 116.256 C 101.004 116.547,87.149 124.489,86.000 125.198 C 84.495 126.126,80.102 128.645,79.200 129.098 C 78.650 129.374,77.660 129.954,77.000 130.387 C 76.340 130.820,75.170 131.504,74.400 131.907 C 71.282 133.538,68.973 134.960,68.500 135.540 C 68.104 136.026,68.000 152.159,68.000 213.214 C 68.000 298.997,67.724 290.620,70.600 292.119 C 71.260 292.463,72.340 293.027,73.000 293.372 C 73.660 293.716,74.740 294.346,75.400 294.771 C 76.060 295.196,77.500 296.027,78.600 296.617 C 79.700 297.207,80.870 297.905,81.200 298.167 C 81.530 298.430,82.250 298.859,82.800 299.120 C 83.350 299.381,84.070 299.773,84.400 299.992 C 85.154 300.493,116.384 318.533,117.200 318.939 C 117.530 319.104,118.520 319.673,119.400 320.205 C 120.280 320.737,121.990 321.725,123.200 322.400 C 124.410 323.075,126.120 324.063,127.000 324.595 C 127.880 325.127,128.870 325.695,129.200 325.858 C 129.739 326.124,152.942 339.503,154.400 340.389 C 155.754 341.211,162.258 344.976,163.000 345.367 C 163.440 345.599,164.700 346.353,165.800 347.043 C 166.900 347.734,168.759 348.816,169.932 349.449 C 171.104 350.082,172.724 350.996,173.532 351.481 C 174.339 351.965,175.270 352.493,175.600 352.654 C 175.930 352.815,182.009 356.317,189.108 360.436 L 202.016 367.925 203.708 366.991 C 204.639 366.477,206.300 365.574,207.400 364.984 C 208.500 364.393,209.670 363.682,210.000 363.403 C 210.330 363.123,211.005 362.771,211.500 362.620 C 211.995 362.470,212.400 362.190,212.400 362.000 C 212.400 361.810,212.769 361.537,213.220 361.394 C 213.870 361.187,218.663 358.483,222.800 355.989 C 224.894 354.726,245.512 342.883,246.000 342.662 C 246.330 342.513,247.140 342.039,247.800 341.608 C 248.460 341.178,249.630 340.483,250.400 340.064 C 251.902 339.247,255.571 337.142,257.943 335.738 C 258.745 335.263,259.938 334.581,260.595 334.221 C 261.600 333.671,274.937 325.907,276.800 324.788 C 278.360 323.851,291.872 316.114,292.400 315.856 C 292.730 315.694,293.720 315.127,294.600 314.595 C 296.058 313.713,299.306 311.875,301.952 310.432 C 302.525 310.119,303.233 309.624,303.525 309.332 C 303.818 309.039,304.207 308.800,304.391 308.800 C 304.654 308.800,309.602 306.000,313.600 303.589 C 313.930 303.389,319.058 300.417,324.995 296.983 C 330.933 293.548,335.925 290.527,336.089 290.269 C 336.453 289.698,336.506 138.228,336.143 136.416 C 336.002 135.709,335.597 135.026,335.243 134.897 C 334.684 134.694,321.229 127.049,319.600 126.009 C 318.923 125.577,313.336 122.371,312.406 121.881 C 312.073 121.705,311.141 121.165,310.336 120.681 C 308.598 119.636,304.763 117.397,302.800 116.282 C 302.030 115.845,300.860 115.154,300.200 114.747 C 299.540 114.340,298.730 113.884,298.400 113.735 C 297.873 113.496,273.954 99.758,272.400 98.802 C 270.863 97.856,266.497 95.352,265.600 94.902 C 265.050 94.626,264.060 94.040,263.400 93.599 C 262.740 93.159,261.660 92.521,261.000 92.182 C 258.498 90.898,255.185 88.945,254.722 88.482 C 254.457 88.217,254.090 88.000,253.907 88.000 C 253.650 88.000,238.650 79.480,235.600 77.602 C 234.197 76.738,229.721 74.163,228.800 73.691 C 227.390 72.967,226.176 72.240,225.543 71.740 C 225.244 71.505,223.560 70.542,221.800 69.602 C 220.040 68.661,218.330 67.680,218.000 67.423 C 217.670 67.165,216.950 66.741,216.400 66.480 C 215.850 66.219,215.130 65.827,214.800 65.609 C 213.274 64.599,202.301 58.402,202.065 58.417 C 201.919 58.427,201.080 58.872,200.200 59.406 M173.353 135.300 C 173.667 135.795,174.053 137.370,174.210 138.800 C 174.368 140.230,174.830 142.660,175.239 144.200 C 175.647 145.740,175.985 148.013,175.991 149.250 C 176.014 154.929,173.949 154.447,198.382 154.474 C 219.132 154.496,223.593 154.189,231.000 152.226 C 232.100 151.935,233.900 151.508,235.000 151.278 C 238.452 150.554,240.944 149.732,243.819 148.366 C 247.675 146.534,255.433 141.393,256.482 139.974 C 258.778 136.869,261.160 140.513,259.449 144.513 C 258.795 146.042,254.474 150.221,252.206 151.518 C 249.352 153.150,243.231 156.000,242.580 156.000 C 242.232 156.000,241.554 156.214,241.074 156.475 C 240.593 156.737,239.120 157.179,237.800 157.457 C 236.480 157.736,234.500 158.166,233.400 158.413 C 227.482 159.739,225.708 160.011,220.400 160.405 C 214.135 160.870,190.293 160.346,185.800 159.644 C 181.661 158.998,177.822 158.781,177.236 159.161 C 176.285 159.777,176.049 168.471,176.013 204.200 C 175.994 222.680,175.814 239.420,175.612 241.400 C 174.731 250.074,173.968 256.317,173.608 257.800 C 173.394 258.680,173.215 260.059,173.210 260.864 C 173.200 262.361,172.177 265.583,170.691 268.800 C 166.092 278.754,148.833 284.517,141.293 278.618 C 129.053 269.041,125.390 253.067,133.665 245.356 C 140.905 238.610,158.878 238.151,163.281 244.600 C 165.070 247.220,164.842 249.443,162.238 254.798 C 160.518 258.334,158.575 257.277,158.936 253.002 C 159.386 247.683,157.844 246.600,149.820 246.600 C 144.788 246.600,143.953 246.792,139.713 248.922 C 133.801 251.891,134.371 261.159,140.977 269.489 C 146.314 276.220,150.461 276.806,159.447 272.100 C 161.350 271.104,165.600 267.342,165.600 266.654 C 165.600 266.398,165.931 265.561,166.336 264.794 C 167.303 262.962,168.276 258.887,168.580 255.400 C 168.715 253.860,169.083 251.070,169.399 249.200 C 170.511 242.622,170.894 232.300,171.195 200.800 C 171.380 181.423,171.686 167.143,171.977 164.247 C 172.522 158.827,172.508 158.790,169.710 158.377 C 161.919 157.225,161.344 157.083,158.144 155.504 C 153.305 153.116,154.111 152.776,161.800 153.962 C 164.571 154.390,170.443 154.512,171.356 154.161 C 172.688 153.650,172.548 149.217,170.972 142.000 C 170.002 137.557,169.846 135.668,170.395 135.006 C 171.141 134.107,172.694 134.262,173.353 135.300 M255.832 155.324 C 256.001 156.906,256.163 162.070,256.192 166.800 C 256.243 175.424,256.897 187.397,257.586 192.352 C 257.789 193.808,258.062 197.250,258.193 200.000 C 258.325 202.750,258.689 207.520,259.002 210.600 C 261.749 237.590,260.739 260.168,256.490 266.762 C 253.377 271.592,240.074 281.039,234.502 282.375 C 231.903 282.999,228.933 282.262,225.880 280.236 C 217.172 274.455,215.984 265.860,222.154 253.275 C 223.236 251.069,228.259 246.177,230.262 245.378 C 231.943 244.707,232.510 244.466,235.200 243.276 C 236.190 242.838,237.666 242.271,238.480 242.015 C 239.944 241.556,240.605 241.158,244.696 238.277 C 247.613 236.222,249.600 236.602,249.600 239.216 C 249.600 240.996,244.735 248.000,243.498 248.000 C 243.278 248.000,241.816 248.606,240.249 249.347 C 238.682 250.088,236.335 251.123,235.033 251.647 C 231.969 252.880,229.273 255.527,228.142 258.412 C 224.861 266.781,225.163 270.103,229.510 273.422 C 231.352 274.828,234.402 275.368,235.004 274.394 C 235.142 274.171,235.827 273.720,236.527 273.393 C 247.771 268.133,251.683 263.257,252.417 253.587 C 252.612 251.015,252.968 248.035,253.208 246.964 C 253.759 244.504,253.760 223.132,253.209 218.200 C 252.025 207.608,251.866 165.304,252.991 160.200 C 253.282 158.880,253.641 156.630,253.789 155.200 C 254.323 150.033,255.271 150.091,255.832 155.324 " stroke="none" fill="#fbfbfb" fill-rule="evenodd"></path></g></svg>